<svg width="35" height="33" viewBox="0 0 35 33" fill="none" xmlns="http://www.w3.org/2000/svg">
<path d="M18.109 17.4643C18.5849 17.8637 19.2945 17.8016 19.6939 17.3257C20.0933 16.8497 20.0312 16.1401 19.5553 15.7407L18.109 17.4643ZM0.230966 2.46287L18.109 17.4643L19.5553 15.7407L1.67724 0.739274L0.230966 2.46287Z" fill="#101B23"/>
<path d="M18.109 15.7408C18.5849 15.3414 19.2945 15.4035 19.6939 15.8794C20.0933 16.3554 20.0312 17.065 19.5553 17.4644L18.109 15.7408ZM0.230966 30.7422L18.109 15.7408L19.5553 17.4644L1.67724 32.4658L0.230966 30.7422Z" fill="#101B23"/>
<path d="M33.109 17.4643C33.5849 17.8637 34.2945 17.8016 34.6939 17.3257C35.0933 16.8497 35.0312 16.1401 34.5553 15.7407L33.109 17.4643ZM15.231 2.46287L33.109 17.4643L34.5553 15.7407L16.6772 0.739274L15.231 2.46287Z" fill="#101B23"/>
<path d="M33.109 15.7408C33.5849 15.3414 34.2945 15.4035 34.6939 15.8794C35.0933 16.3554 35.0312 17.065 34.5553 17.4644L33.109 15.7408ZM15.231 30.7422L33.109 15.7408L34.5553 17.4644L16.6772 32.4658L15.231 30.7422Z" fill="#101B23"/>
</svg>
