<svg width="313" height="312" viewBox="0 0 313 312" fill="none" xmlns="http://www.w3.org/2000/svg">
<rect x="0.640625" y="0.111328" width="311.889" height="311.889" rx="20" fill="url(#paint0_linear_361_80)"/>
<path d="M42.1836 207.641C41.6313 207.641 41.1836 207.193 41.1836 206.641V104.035C41.1836 103.482 41.6313 103.035 42.1836 103.035H123.241C123.793 103.035 124.241 103.482 124.241 104.035V121.675C124.241 122.228 123.793 122.675 123.241 122.675H62.0565C61.5043 122.675 61.0565 123.123 61.0565 123.675V206.641C61.0565 207.193 60.6088 207.641 60.0565 207.641H42.1836Z" fill="#ECECF3"/>
<path d="M139.837 104.035C139.837 103.482 140.284 103.035 140.837 103.035H270.582C271.134 103.035 271.582 103.482 271.582 104.035V206.64C271.582 207.193 271.134 207.64 270.582 207.64H252.82C252.268 207.64 251.82 207.193 251.82 206.64V123.796C251.82 123.244 251.373 122.796 250.82 122.796H140.837C140.284 122.796 139.837 122.349 139.837 121.796V104.035Z" fill="#ECECF3"/>
<path d="M139.837 206.641C139.837 207.193 140.284 207.641 140.837 207.641H270.582C271.134 207.641 271.582 207.193 271.582 206.641V104.035C271.582 103.483 271.134 103.035 270.582 103.035H252.82C252.268 103.035 251.82 103.483 251.82 104.035V186.879C251.82 187.431 251.373 187.879 250.82 187.879H140.837C140.284 187.879 139.837 188.327 139.837 188.879V206.641Z" fill="#ECECF3"/>
<defs>
<linearGradient id="paint0_linear_361_80" x1="0.640625" y1="0.111328" x2="312.529" y2="312" gradientUnits="userSpaceOnUse">
<stop offset="0.25" stop-color="#1AA2C1"/>
<stop offset="0.75" stop-color="#DF4816"/>
</linearGradient>
</defs>
</svg>
