<svg width="312" height="313" viewBox="0 0 312 313" fill="none" xmlns="http://www.w3.org/2000/svg">
<rect x="0.107422" y="0.589355" width="311.889" height="311.889" rx="20" fill="url(#paint0_linear_235_34)"/>
<path d="M41.6504 208.119C41.0981 208.119 40.6504 207.671 40.6504 207.119V104.513C40.6504 103.96 41.0981 103.513 41.6504 103.513H122.708C123.26 103.513 123.708 103.96 123.708 104.513V122.153C123.708 122.706 123.26 123.153 122.708 123.153H61.5233C60.9711 123.153 60.5233 123.601 60.5233 124.153V207.119C60.5233 207.671 60.0756 208.119 59.5233 208.119H41.6504Z" fill="#101B23"/>
<path d="M139.304 104.513C139.304 103.96 139.751 103.513 140.304 103.513H270.049C270.601 103.513 271.049 103.96 271.049 104.513V207.118C271.049 207.671 270.601 208.118 270.049 208.118H252.287C251.735 208.118 251.287 207.671 251.287 207.118V124.274C251.287 123.722 250.839 123.274 250.287 123.274H140.304C139.751 123.274 139.304 122.827 139.304 122.274V104.513Z" fill="#101B23"/>
<path d="M139.304 207.119C139.304 207.671 139.751 208.119 140.304 208.119H270.049C270.601 208.119 271.049 207.671 271.049 207.119V104.513C271.049 103.961 270.601 103.513 270.049 103.513H252.287C251.735 103.513 251.287 103.961 251.287 104.513V187.357C251.287 187.909 250.839 188.357 250.287 188.357H140.304C139.751 188.357 139.304 188.805 139.304 189.357V207.119Z" fill="#101B23"/>
<defs>
<linearGradient id="paint0_linear_235_34" x1="0.107422" y1="0.589355" x2="311.996" y2="312.478" gradientUnits="userSpaceOnUse">
<stop offset="0.25" stop-color="#1AA2C1"/>
<stop offset="0.75" stop-color="#EC683C"/>
</linearGradient>
</defs>
</svg>
