<svg width="21" height="21" viewBox="0 0 21 21" fill="none" xmlns="http://www.w3.org/2000/svg">
<path fill-rule="evenodd" clip-rule="evenodd" d="M12.5508 1.69196C13.0061 1.367 12.7761 0.375 12.2167 0.375H5.91797C3.15655 0.375 0.917969 2.61358 0.917969 5.375V15.1135C0.917969 17.8749 3.15655 20.1135 5.91797 20.1135H12.2168C12.7762 20.1135 13.0062 19.1214 12.5509 18.7964C9.88328 16.8924 8.14404 13.7714 8.14404 10.2441C8.14404 6.71695 9.88322 3.59596 12.5508 1.69196Z" fill="#101B23"/>
<path d="M14.2463 5.43484C14.2772 5.18428 14.4901 4.99609 14.7425 4.99609H15.1586C15.4099 4.99609 15.6222 5.18267 15.6545 5.43193L16.0772 8.69934C16.0827 8.74145 16.0828 8.78408 16.0774 8.8262L15.6533 12.1818C15.6217 12.4317 15.4092 12.6191 15.1573 12.6191H14.7438C14.4908 12.6191 14.2776 12.4302 14.2474 12.179L13.8428 8.82333C13.8379 8.7831 13.838 8.74243 13.8429 8.70221L14.2463 5.43484Z" fill="#101B23"/>
<path d="M17.6151 8.08274C17.8592 8.12005 18.0396 8.33002 18.0396 8.577V9.01894C18.0396 9.26456 17.8612 9.47381 17.6186 9.51265L15.0748 9.9201C15.0231 9.92839 14.9703 9.92849 14.9185 9.92038L12.3041 9.51136C12.0607 9.47329 11.8813 9.26368 11.8813 9.01737V8.57851C11.8813 8.33088 12.0626 8.12055 12.3075 8.08399L14.922 7.69377C14.9715 7.68638 15.0219 7.68646 15.0713 7.69402L17.6151 8.08274Z" fill="#101B23"/>
<path d="M18.1471 11.4313C18.1736 11.2167 18.356 11.0554 18.5723 11.0554C18.7876 11.0554 18.9695 11.2153 18.9971 11.4288L19.2243 13.1844C19.2297 13.2266 19.2298 13.2692 19.2245 13.3113L18.996 15.1189C18.969 15.3324 18.7874 15.4925 18.5722 15.4925C18.3561 15.4925 18.174 15.3311 18.1482 15.1165L17.9302 13.3084C17.9253 13.2682 17.9254 13.2275 17.9303 13.1873L18.1471 11.4313Z" fill="#101B23"/>
<path d="M19.9954 12.8325C20.2109 12.8655 20.3701 13.0508 20.3701 13.2688C20.3701 13.4856 20.2126 13.6703 19.9986 13.7046L18.6771 13.9163C18.6253 13.9246 18.5726 13.9247 18.5208 13.9166L17.1574 13.7033C16.9434 13.6698 16.7856 13.4854 16.7856 13.2688C16.7856 13.051 16.9451 12.866 17.1605 12.8338L18.5243 12.6303C18.5738 12.6229 18.6241 12.623 18.6736 12.6305L19.9954 12.8325Z" fill="#101B23"/>
</svg>
