<svg width="34" height="33" viewBox="0 0 34 33" fill="none" xmlns="http://www.w3.org/2000/svg">
<path d="M18.3184 32.458C18.3184 32.7342 18.0945 32.958 17.8184 32.958H16.5684C16.2922 32.958 16.0684 32.7342 16.0684 32.458V25.2197C16.0684 24.9436 16.2922 24.7197 16.5684 24.7197H17.8184C18.0945 24.7197 18.3184 24.9436 18.3184 25.2197V32.458ZM11.9394 22.8027C12.1347 22.998 12.1347 23.3145 11.9395 23.5098L6.82144 28.6287C6.62614 28.824 6.30945 28.824 6.11419 28.6286L5.23029 27.7442C5.03513 27.5489 5.03518 27.2324 5.2304 27.0372L10.3486 21.919C10.5439 21.7237 10.8604 21.7237 11.0557 21.919L11.9394 22.8027ZM29.1562 27.0371C29.3515 27.2323 29.3515 27.5489 29.1562 27.7442L28.2725 28.6279C28.0772 28.8232 27.7607 28.8232 27.5654 28.628L22.4465 23.5099C22.2512 23.3146 22.2512 22.9979 22.4466 22.8027L23.331 21.9188C23.5263 21.7236 23.8428 21.7237 24.038 21.9189L29.1562 27.0371ZM9.13867 17.29C9.13867 17.5662 8.91481 17.79 8.63867 17.79H1.40039C1.12425 17.79 0.900391 17.5662 0.900391 17.29V16.04C0.900391 15.7639 1.12425 15.54 1.40039 15.54H8.63867C8.91481 15.54 9.13867 15.7639 9.13867 16.04V17.29ZM33.4883 17.29C33.4883 17.5662 33.2644 17.79 32.9883 17.79H25.75C25.4739 17.79 25.25 17.5662 25.25 17.29V16.04C25.25 15.7639 25.4739 15.54 25.75 15.54H32.9883C33.2644 15.54 33.4883 15.7639 33.4883 16.04V17.29ZM11.9395 9.81941C12.1347 10.0146 12.1348 10.3311 11.9396 10.5264L11.0557 11.4109C10.8605 11.6062 10.5438 11.6063 10.3485 11.411L5.22964 6.29214C5.03433 6.09683 5.03438 5.78017 5.22975 5.58492L6.11422 4.70099C6.3095 4.50583 6.626 4.50588 6.82122 4.7011L11.9395 9.81941ZM29.1562 5.5859C29.3515 5.78116 29.3515 6.09774 29.1562 6.29301L24.0381 11.4111C23.8429 11.6064 23.5263 11.6064 23.331 11.4111L22.4473 10.5274C22.252 10.3321 22.252 10.0155 22.4473 9.82027L27.5654 4.70219C27.7607 4.50692 28.0772 4.50692 28.2725 4.70219L29.1562 5.5859ZM18.3184 8.10938C18.3184 8.38552 18.0945 8.60938 17.8184 8.60938H16.5684C16.2922 8.60938 16.0684 8.38552 16.0684 8.10937V0.871094C16.0684 0.594951 16.2922 0.371094 16.5684 0.371094H17.8184C18.0945 0.371094 18.3184 0.594951 18.3184 0.871094V8.10938Z" fill="#ECECF3"/>
<rect x="12.625" y="12.0951" width="9.13982" height="9.13982" rx="2" fill="#ECECF3"/>
</svg>
